999
FreeCAD v0.20 29177 +426 (Git)
  0
SECTION
  2
HEADER
  9
$ACADVER
  1
AC1014
  9
$ACADMAINTVER
 70
     9
  9
$DWGCODEPAGE
  3
ANSI_1252
  9
$TEXTSTYLE
  7
STANDARD
  9
$DIMSTYLE
  2
STANDARD
  9
$DIMTXSTY
  7
STANDARD
  9
$CMLSTYLE
  2
STANDARD
  9
$LUNITS
 70
2
  9
$INSUNITS
 70
4
  9
$PEXTMAX
 10
50
 20
50
 30
50
  9
$PEXTMIN
 10
0
 20
0
 30
0
  9
$HANDSEED
  5
FFFF
  0
ENDSEC
  0
SECTION
  2
CLASSES
  0
CLASS
  1
ACDBDICTIONARYWDFLT
  2
AcDbDictionaryWithDefault
  3
ObjectDBX Classes
 90
        0
280
     0
281
     0
  0
CLASS
  1
XRECORD
  2
AcDbXrecord
  3
ObjectDBX Classes
 90
        0
280
     0
281
     0
  0
CLASS
  1
LWPOLYLINE
  2
AcDbPolyline
  3
ObjectDBX Classes
 90
        0
280
     0
281
     1
  0
ENDSEC
  0
SECTION
  2
TABLES
  0
TABLE
  2
VPORT
  5
20
330
0
100
AcDbSymbolTable
 70
     1
  0
VPORT
  5
21
330
20
100
AcDbSymbolTableRecord
100
AcDbViewportTableRecord
  2
*ACTIVE
 70
     0
  0
ENDTAB
  0
TABLE
  2
LTYPE
  5
22
330
0
100
AcDbSymbolTable
 70
     1
  0
LTYPE
  5
23
330
21
100
AcDbSymbolTableRecord
100
AcDbLinetypeTableRecord
  2
BYBLOCK
 70
     0
  3

 72
    65
 73
     0
 40
0.0
  0
LTYPE
  5
24
330
21
100
AcDbSymbolTableRecord
100
AcDbLinetypeTableRecord
  2
BYLAYER
 70
     0
  3

 72
    65
 73
     0
 40
0.0
  0
LTYPE
  5
25
330
21
100
AcDbSymbolTableRecord
100
AcDbLinetypeTableRecord
  2
CONTINUOUS
 70
     0
  3
Solid line
 72
    65
 73
     0
 40
0.0
  0
ENDTAB
  0
TABLE
  2
LAYER
  5
A32
330
0
100
AcDbSymbolTable
 70
2
  0
LAYER
  5
A33
330
A32
100
AcDbSymbolTableRecord
100
AcDbLayerTableRecord
  2
0
 70
   0
 62
   7
  6
CONTINUOUS
  0
LAYER
  5
A34
330
A32
100
AcDbSymbolTableRecord
100
AcDbLayerTableRecord
  2
ProjItem
 70
    0
 62
    7
  6
CONTINUOUS
  0
ENDTAB
  0
TABLE
  2
STYLE
  5
70
330
0
100
AcDbSymbolTable
 70
     2
  0
STYLE
  5
71
330
70
100
AcDbSymbolTableRecord
100
AcDbTextStyleTableRecord
  2
STANDARD
 70
     0
 40
0.0
 41
1.0
 50
0.0
 71
     0
 42
2.5
  3
arial.ttf
  4

  0
STYLE
  5
72
330
70
100
AcDbSymbolTableRecord
100
AcDbTextStyleTableRecord
  2
ANNOTATIVE
 70
     0
 40
0.0
 41
1.0
 50
0.0
 71
     0
 42
2.5
  3
arial.ttf
  4

  0
ENDTAB
  0
TABLE
  2
VIEW
  5
73
330
0
100
AcDbSymbolTable
 70
     0
  0
ENDTAB
  0
TABLE
  2
UCS
  5
74
330
0
100
AcDbSymbolTable
 70
     0
  0
ENDTAB
  0
TABLE
  2
APPID
  5
75
330
0
100
AcDbSymbolTable
 70
     2
  0
APPID
  5
76
330
75
100
AcDbSymbolTableRecord
100
AcDbRegAppTableRecord
  2
ACAD
 70
     0
  0
APPID
  5
77
330
75
100
AcDbSymbolTableRecord
100
AcDbRegAppTableRecord
  2
ACADANNOTATIVE
 70
     0
  0
ENDTAB
  0
TABLE
  2
DIMSTYLE
  5
78
330
0
100
AcDbSymbolTable
 70
     2
  0
DIMSTYLE
105
79
330
78
100
AcDbSymbolTableRecord
100
AcDbDimStyleTableRecord
  2
STANDARD
 70
     0
  3

  4

  5

  6

  7

 40
0.0
 41
2.5
 42
0.625
 43
3.75
 44
1.25
 45
0.0
 46
0.0
 47
0.0
 48
0.0
140
2.5
141
2.5
142
0.0
143
0.03937007874016
144
1.0
145
0.0
146
1.0
147
0.625
 71
     0
 72
     0
 73
     0
 74
     0
 75
     0
 76
     0
 77
     1
 78
     8
170
     0
171
     3
172
     1
173
     0
174
     0
175
     0
176
     0
177
     0
178
     0
270
     2
271
     2
272
     2
273
     2
274
     3
340
71
275
     0
280
     0
281
     0
282
     0
283
     0
284
     8
285
     0
286
     0
287
     3
288
     0
  0
ENDTAB
  0
TABLE
  2
BLOCK_RECORD
  5
A01
330
0
100
AcDbSymbolTable
  70
5
  0
BLOCK_RECORD
  5
A02
330
A01
100
AcDbSymbolTableRecord
100
AcDbBlockTableRecord
  2
*MODEL_SPACE
  0
BLOCK_RECORD
  5
A03
330
A01
100
AcDbSymbolTableRecord
100
AcDbBlockTableRecord
  2
*PAPER_SPACE
  0
ENDTAB
  0
ENDSEC
  0
SECTION
  2
BLOCKS
  0
BLOCK
  5
A04
330
A02
100
AcDbEntity
  8
0
100
AcDbBlockBegin
  2
*MODEL_SPACE
 70
   0
 10
0
 20
0
 30
0
  3
*MODEL_SPACE
  1
 
  0
ENDBLK
  5
A05
330
A02
100
AcDbEntity
  8
0
100
AcDbBlockEnd
  0
BLOCK
  5
A06
330
A03
100
AcDbEntity
 67
1
  8
0
100
AcDbBlockBegin
  2
*PAPER_SPACE
 70
   0
 10
0
 20
0
 30
0
  3
*PAPER_SPACE
  1
 
  0
ENDBLK
  5
A07
330
A03
100
AcDbEntity
 67
    1
  8
0
100
AcDbBlockEnd
  0
ENDSEC
  0
SECTION
  2
ENTITIES
  0
ARC
  5
A08
330
A02
100
AcDbEntity
  8
ProjItem
100
AcDbCircle
 10
142.35
 20
119.705
 30
0
 40
0.4
100
AcDbArc
 50
-81.524
 51
27.0792
  0
SPLINE
  5
A09
330
A02
100
AcDbEntity
  8
ProjItem
100
AcDbSpline
210
0
220
0
230
1
 70
8
 71
1
 72
17
 73
15
 74
0
 40
4.71239
 40
4.71239
 40
4.93679
 40
5.16119
 40
5.38559
 40
5.60999
 40
5.83439
 40
6.05879
 40
6.28319
 40
6.50758
 40
6.73198
 40
6.95638
 40
7.18078
 40
7.40518
 40
7.62958
 40
7.85398
 40
7.85398
 10
157.064
 20
119.309
 30
0
 10
156.849
 20
119.309
 30
0
 10
156.216
 20
119.309
 30
0
 10
155.195
 20
119.309
 30
0
 10
153.839
 20
119.309
 30
0
 10
152.216
 20
119.309
 30
0
 10
150.406
 20
119.309
 30
0
 10
148.5
 20
119.309
 30
0
 10
146.594
 20
119.309
 30
0
 10
144.784
 20
119.309
 30
0
 10
143.161
 20
119.309
 30
0
 10
141.805
 20
119.309
 30
0
 10
140.784
 20
119.309
 30
0
 10
140.151
 20
119.309
 30
0
 10
139.936
 20
119.309
 30
0
  0
SPLINE
  5
A0A
330
A02
100
AcDbEntity
  8
ProjItem
100
AcDbSpline
210
0
220
0
230
1
 70
8
 71
1
 72
17
 73
15
 74
0
 40
4.71239
 40
4.71239
 40
4.93679
 40
5.16119
 40
5.38559
 40
5.60999
 40
5.83439
 40
6.05879
 40
6.28319
 40
6.50758
 40
6.73198
 40
6.95638
 40
7.18078
 40
7.40518
 40
7.62958
 40
7.85398
 40
7.85398
 10
157.064
 20
116.309
 30
0
 10
156.849
 20
116.309
 30
0
 10
156.216
 20
116.309
 30
0
 10
155.195
 20
116.309
 30
0
 10
153.839
 20
116.309
 30
0
 10
152.216
 20
116.309
 30
0
 10
150.406
 20
116.309
 30
0
 10
148.5
 20
116.309
 30
0
 10
146.594
 20
116.309
 30
0
 10
144.784
 20
116.309
 30
0
 10
143.161
 20
116.309
 30
0
 10
141.805
 20
116.309
 30
0
 10
140.784
 20
116.309
 30
0
 10
140.151
 20
116.309
 30
0
 10
139.936
 20
116.309
 30
0
  0
ARC
  5
A0B
330
A02
100
AcDbEntity
  8
ProjItem
100
AcDbCircle
 10
139.936
 20
117.809
 30
0
 40
1.5
100
AcDbArc
 50
90
 51
-90
  0
ARC
  5
A0C
330
A02
100
AcDbEntity
  8
ProjItem
100
AcDbCircle
 10
139.936
 20
115.309
 30
0
 40
1
100
AcDbArc
 50
34.3953
 51
90
  0
ARC
  5
A0D
330
A02
100
AcDbEntity
  8
ProjItem
100
AcDbCircle
 10
141.127
 20
114.632
 30
0
 40
0.4
100
AcDbArc
 50
12.9061
 51
34.3953
  0
ARC
  5
A0E
330
A02
100
AcDbEntity
  8
ProjItem
100
AcDbCircle
 10
107.12
 20
106.84
 30
0
 40
35.2883
100
AcDbArc
 50
-30.4812
 51
12.9061
  0
SPLINE
  5
A0F
330
A02
100
AcDbEntity
  8
ProjItem
100
AcDbSpline
210
0
220
0
230
1
 70
8
 71
1
 72
17
 73
15
 74
0
 40
4.71239
 40
4.71239
 40
4.93679
 40
5.16119
 40
5.38559
 40
5.60999
 40
5.83439
 40
6.05879
 40
6.28319
 40
6.50758
 40
6.73198
 40
6.95638
 40
7.18078
 40
7.40518
 40
7.62958
 40
7.85398
 40
7.85398
 10
159.468
 20
88.9394
 30
0
 10
159.193
 20
88.9394
 30
0
 10
158.382
 20
88.9394
 30
0
 10
157.075
 20
88.9394
 30
0
 10
155.339
 20
88.9394
 30
0
 10
153.259
 20
88.9394
 30
0
 10
150.941
 20
88.9394
 30
0
 10
148.5
 20
88.9394
 30
0
 10
146.059
 20
88.9394
 30
0
 10
143.741
 20
88.9394
 30
0
 10
141.661
 20
88.9394
 30
0
 10
139.925
 20
88.9394
 30
0
 10
138.618
 20
88.9394
 30
0
 10
137.807
 20
88.9394
 30
0
 10
137.532
 20
88.9394
 30
0
  0
ARC
  5
A10
330
A02
100
AcDbEntity
  8
ProjItem
100
AcDbCircle
 10
135.675
 20
90.6132
 30
0
 40
2.5
100
AcDbArc
 50
-92.6204
 51
-42.0298
  0
SPLINE
  5
A11
330
A02
100
AcDbEntity
  8
ProjItem
100
AcDbSpline
210
0
220
0
230
1
 70
8
 71
2
 72
6
 73
3
 74
0
 40
4.52414
 40
4.52414
 40
4.52414
 40
4.71239
 40
4.71239
 40
4.71239
 10
161.211
 20
88.1158
 30
0
 10
161.439
 20
88.1158
 30
0
 10
161.44
 20
88.1158
 30
0
  0
SPLINE
  5
A12
330
A02
100
AcDbEntity
  8
ProjItem
100
AcDbSpline
210
0
220
0
230
1
 70
8
 71
1
 72
17
 73
15
 74
0
 40
4.71239
 40
4.71239
 40
4.93679
 40
5.16119
 40
5.38559
 40
5.60999
 40
5.83439
 40
6.05879
 40
6.28319
 40
6.50758
 40
6.73198
 40
6.95638
 40
7.18078
 40
7.40518
 40
7.62958
 40
7.85398
 40
7.85398
 10
161.44
 20
88.1158
 30
0
 10
161.115
 20
88.1158
 30
0
 10
160.158
 20
88.1158
 30
0
 10
158.617
 20
88.1158
 30
0
 10
156.568
 20
88.1158
 30
0
 10
154.114
 20
88.1158
 30
0
 10
151.379
 20
88.1158
 30
0
 10
148.5
 20
88.1158
 30
0
 10
145.621
 20
88.1158
 30
0
 10
142.886
 20
88.1158
 30
0
 10
140.432
 20
88.1158
 30
0
 10
138.383
 20
88.1158
 30
0
 10
136.842
 20
88.1158
 30
0
 10
135.885
 20
88.1158
 30
0
 10
135.56
 20
88.1158
 30
0
  0
SPLINE
  5
A13
330
A02
100
AcDbEntity
  8
ProjItem
100
AcDbSpline
210
0
220
0
230
1
 70
8
 71
1
 72
17
 73
15
 74
0
 40
4.71239
 40
4.71239
 40
4.93679
 40
5.16119
 40
5.38559
 40
5.60999
 40
5.83439
 40
6.05879
 40
6.28319
 40
6.50758
 40
6.73198
 40
6.95638
 40
7.18078
 40
7.40518
 40
7.62958
 40
7.85398
 40
7.85398
 10
161.421
 20
85.6159
 30
0
 10
161.097
 20
85.6159
 30
0
 10
160.142
 20
85.6159
 30
0
 10
158.602
 20
85.6159
 30
0
 10
156.556
 20
85.6159
 30
0
 10
154.106
 20
85.6159
 30
0
 10
151.375
 20
85.6159
 30
0
 10
148.5
 20
85.6159
 30
0
 10
145.625
 20
85.6159
 30
0
 10
142.894
 20
85.6159
 30
0
 10
140.444
 20
85.6159
 30
0
 10
138.398
 20
85.6159
 30
0
 10
136.858
 20
85.6159
 30
0
 10
135.903
 20
85.6159
 30
0
 10
135.579
 20
85.6159
 30
0
  0
ARC
  5
A14
330
A02
100
AcDbEntity
  8
ProjItem
100
AcDbCircle
 10
135.58
 20
86.8659
 30
0
 40
1.25
100
AcDbArc
 50
90.9121
 51
-90.0609
  0
ARC
  5
A15
330
A02
100
AcDbEntity
  8
ProjItem
100
AcDbCircle
 10
135.578
 20
84.6159
 30
0
 40
1
100
AcDbArc
 50
-70
 51
89.9391
  0
SPLINE
  5
A16
330
A02
100
AcDbEntity
  8
ProjItem
100
AcDbSpline
210
0
220
0
230
1
 70
8
 71
1
 72
17
 73
15
 74
0
 40
4.71239
 40
4.71239
 40
4.93679
 40
5.16119
 40
5.38559
 40
5.60999
 40
5.83439
 40
6.05879
 40
6.28319
 40
6.50758
 40
6.73198
 40
6.95638
 40
7.18078
 40
7.40518
 40
7.62958
 40
7.85398
 40
7.85398
 10
163.5
 20
82.7955
 30
0
 10
163.124
 20
82.7955
 30
0
 10
162.015
 20
82.7955
 30
0
 10
160.227
 20
82.7955
 30
0
 10
157.852
 20
82.7955
 30
0
 10
155.008
 20
82.7955
 30
0
 10
151.838
 20
82.7955
 30
0
 10
148.5
 20
82.7955
 30
0
 10
145.162
 20
82.7955
 30
0
 10
141.992
 20
82.7955
 30
0
 10
139.148
 20
82.7955
 30
0
 10
136.773
 20
82.7955
 30
0
 10
134.985
 20
82.7955
 30
0
 10
133.876
 20
82.7955
 30
0
 10
133.5
 20
82.7955
 30
0
  0
SPLINE
  5
A17
330
A02
100
AcDbEntity
  8
ProjItem
100
AcDbSpline
210
0
220
0
230
1
 70
8
 71
1
 72
17
 73
15
 74
0
 40
4.71239
 40
4.71239
 40
4.93679
 40
5.16119
 40
5.38559
 40
5.60999
 40
5.83439
 40
6.05879
 40
6.28319
 40
6.50758
 40
6.73198
 40
6.95638
 40
7.18078
 40
7.40518
 40
7.62958
 40
7.85398
 40
7.85398
 10
163.5
 20
79.7955
 30
0
 10
163.124
 20
79.7955
 30
0
 10
162.015
 20
79.7955
 30
0
 10
160.227
 20
79.7955
 30
0
 10
157.852
 20
79.7955
 30
0
 10
155.008
 20
79.7955
 30
0
 10
151.838
 20
79.7955
 30
0
 10
148.5
 20
79.7955
 30
0
 10
145.162
 20
79.7955
 30
0
 10
141.992
 20
79.7955
 30
0
 10
139.148
 20
79.7955
 30
0
 10
136.773
 20
79.7955
 30
0
 10
134.985
 20
79.7955
 30
0
 10
133.876
 20
79.7955
 30
0
 10
133.5
 20
79.7955
 30
0
  0
SPLINE
  5
A18
330
A02
100
AcDbEntity
  8
ProjItem
100
AcDbSpline
210
0
220
0
230
1
 70
8
 71
1
 72
17
 73
15
 74
0
 40
4.71239
 40
4.71239
 40
4.93679
 40
5.16119
 40
5.38559
 40
5.60999
 40
5.83439
 40
6.05879
 40
6.28319
 40
6.50758
 40
6.73198
 40
6.95638
 40
7.18078
 40
7.40518
 40
7.62958
 40
7.85398
 40
7.85398
 10
155.482
 20
122.3
 30
0
 10
155.307
 20
122.3
 30
0
 10
154.791
 20
122.3
 30
0
 10
153.959
 20
122.3
 30
0
 10
152.853
 20
122.3
 30
0
 10
151.53
 20
122.3
 30
0
 10
150.054
 20
122.3
 30
0
 10
148.5
 20
122.3
 30
0
 10
146.946
 20
122.3
 30
0
 10
145.47
 20
122.3
 30
0
 10
144.147
 20
122.3
 30
0
 10
143.041
 20
122.3
 30
0
 10
142.209
 20
122.3
 30
0
 10
141.693
 20
122.3
 30
0
 10
141.518
 20
122.3
 30
0
  0
SPLINE
  5
A19
330
A02
100
AcDbEntity
  8
ProjItem
100
AcDbSpline
210
0
220
0
230
1
 70
8
 71
3
 72
11
 73
7
 74
0
 40
0
 40
0
 40
0
 40
0
 40
0.5
 40
0.5
 40
0.5
 40
0.928534
 40
0.928534
 40
0.928534
 40
0.928534
 10
154.294
 20
119.887
 30
0
 10
154.231
 20
119.768
 30
0
 10
154.236
 20
119.616
 30
0
 10
154.306
 20
119.501
 30
0
 10
154.366
 20
119.399
 30
0
 10
154.473
 20
119.326
 30
0
 10
154.591
 20
119.309
 30
0
  0
SPLINE
  5
A1A
330
A02
100
AcDbEntity
  8
ProjItem
100
AcDbSpline
210
0
220
0
230
1
 70
8
 71
3
 72
17
 73
13
 74
0
 40
0
 40
0
 40
0
 40
0
 40
0.307111
 40
0.307111
 40
0.307111
 40
0.51489
 40
0.51489
 40
0.51489
 40
0.829428
 40
0.829428
 40
0.829428
 40
1
 40
1
 40
1
 40
1
 10
157.064
 20
116.309
 30
0
 10
157.471
 20
116.308
 30
0
 10
157.874
 20
116.481
 30
0
 10
158.153
 20
116.778
 30
0
 10
158.342
 20
116.977
 30
0
 10
158.475
 20
117.23
 30
0
 10
158.531
 20
117.499
 30
0
 10
158.619
 20
117.907
 30
0
 10
158.526
 20
118.349
 30
0
 10
158.281
 20
118.686
 30
0
 10
158.006
 20
119.073
 30
0
 10
157.538
 20
119.313
 30
0
 10
157.064
 20
119.309
 30
0
  0
SPLINE
  5
A1B
330
A02
100
AcDbEntity
  8
ProjItem
100
AcDbSpline
210
0
220
0
230
1
 70
8
 71
3
 72
8
 73
4
 74
0
 40
0
 40
0
 40
0
 40
0
 40
1
 40
1
 40
1
 40
1
 10
156.239
 20
115.874
 30
0
 10
156.42
 20
116.143
 30
0
 10
156.739
 20
116.312
 30
0
 10
157.064
 20
116.309
 30
0
  0
LINE
  5
A1C
330
A02
100
AcDbEntity
  8
ProjItem
100
AcDbLine
 10
155.543
 20
114.858
 30
0
 11
156.239
 21
115.874
 31
0
  0
LINE
  5
A1D
330
A02
100
AcDbEntity
  8
ProjItem
100
AcDbLine
 10
141.457
 20
114.858
 30
0
 11
140.761
 21
115.874
 31
0
  0
SPLINE
  5
A1E
330
A02
100
AcDbEntity
  8
ProjItem
100
AcDbSpline
210
0
220
0
230
1
 70
8
 71
2
 72
6
 73
3
 74
0
 40
0
 40
0
 40
0
 40
1
 40
1
 40
1
 10
155.483
 20
114.721
 30
0
 10
155.5
 20
114.795
 30
0
 10
155.543
 20
114.858
 30
0
  0
SPLINE
  5
A1F
330
A02
100
AcDbEntity
  8
ProjItem
100
AcDbSpline
210
0
220
0
230
1
 70
8
 71
3
 72
11
 73
7
 74
0
 40
0
 40
0
 40
0
 40
0
 40
0.495
 40
0.495
 40
0.495
 40
1
 40
1
 40
1
 40
1
 10
159.468
 20
88.9394
 30
0
 10
157.23
 20
92.7384
 30
0
 10
155.714
 20
96.9611
 30
0
 10
155.026
 20
101.317
 30
0
 10
154.32
 20
105.759
 30
0
 10
154.476
 20
110.337
 30
0
 10
155.483
 20
114.721
 30
0
  0
SPLINE
  5
A20
330
A02
100
AcDbEntity
  8
ProjItem
100
AcDbSpline
210
0
220
0
230
1
 70
8
 71
3
 72
8
 73
4
 74
0
 40
0
 40
0
 40
0
 40
0
 40
0.945374
 40
0.945374
 40
0.945374
 40
0.945374
 10
159.468
 20
88.9394
 30
0
 10
159.909
 20
88.4469
 30
0
 10
160.551
 20
88.1432
 30
0
 10
161.211
 20
88.1158
 30
0
  0
SPLINE
  5
A21
330
A02
100
AcDbEntity
  8
ProjItem
100
AcDbSpline
210
0
220
0
230
1
 70
8
 71
3
 72
20
 73
16
 74
0
 40
0
 40
0
 40
0
 40
0
 40
0.166667
 40
0.166667
 40
0.166667
 40
0.5
 40
0.5
 40
0.5
 40
0.666667
 40
0.666667
 40
0.666667
 40
0.833333
 40
0.833333
 40
0.833333
 40
1
 40
1
 40
1
 40
1
 10
161.44
 20
88.1158
 30
0
 10
161.632
 20
88.1121
 30
0
 10
161.813
 20
88.0672
 30
0
 10
161.985
 20
87.981
 30
0
 10
162.323
 20
87.8119
 30
0
 10
162.575
 20
87.4807
 30
0
 10
162.646
 20
87.109
 30
0
 10
162.683
 20
86.9206
 30
0
 10
162.677
 20
86.7335
 30
0
 10
162.629
 20
86.5477
 30
0
 10
162.579
 20
86.3622
 30
0
 10
162.492
 20
86.1966
 30
0
 10
162.367
 20
86.0507
 30
0
 10
162.135
 20
85.7775
 30
0
 10
161.78
 20
85.6144
 30
0
 10
161.421
 20
85.6159
 30
0
  0
SPLINE
  5
A22
330
A02
100
AcDbEntity
  8
ProjItem
100
AcDbSpline
210
0
220
0
230
1
 70
8
 71
3
 72
20
 73
16
 74
0
 40
0
 40
0
 40
0
 40
0
 40
0.176829
 40
0.176829
 40
0.176829
 40
0.530487
 40
0.530487
 40
0.530487
 40
0.707316
 40
0.707316
 40
0.707316
 40
0.823171
 40
0.823171
 40
0.823171
 40
1
 40
1
 40
1
 40
1
 10
161.08
 20
83.6762
 30
0
 10
160.952
 20
83.7233
 30
0
 10
160.838
 20
83.7935
 30
0
 10
160.738
 20
83.8869
 30
0
 10
160.54
 20
84.071
 30
0
 10
160.423
 20
84.3382
 30
0
 10
160.422
 20
84.6085
 30
0
 10
160.422
 20
84.7452
 30
0
 10
160.447
 20
84.8767
 30
0
 10
160.5
 20
85.0029
 30
0
 10
160.535
 20
85.0848
 30
0
 10
160.579
 20
85.1609
 30
0
 10
160.634
 20
85.231
 30
0
 10
160.819
 20
85.4712
 30
0
 10
161.118
 20
85.6175
 30
0
 10
161.421
 20
85.6159
 30
0
  0
LINE
  5
A23
330
A02
100
AcDbEntity
  8
ProjItem
100
AcDbLine
 10
135.92
 20
83.6762
 30
0
 11
133.5
 21
82.7955
 31
0
  0
LINE
  5
A24
330
A02
100
AcDbEntity
  8
ProjItem
100
AcDbLine
 10
161.08
 20
83.6762
 30
0
 11
163.5
 21
82.7955
 31
0
  0
LINE
  5
A25
330
A02
100
AcDbEntity
  8
ProjItem
100
AcDbLine
 10
133.5
 20
82.7955
 30
0
 11
133.5
 21
79.7955
 31
0
  0
LINE
  5
A26
330
A02
100
AcDbEntity
  8
ProjItem
100
AcDbLine
 10
163.5
 20
82.7955
 30
0
 11
163.5
 21
79.7955
 31
0
  0
ARC
  5
A27
330
A02
100
AcDbEntity
  8
ProjItem
100
AcDbCircle
 10
148.5
 20
122.795
 30
0
 40
7
100
AcDbArc
 50
180
 51
-175.938
  0
ARC
  5
A28
330
A02
100
AcDbEntity
  8
ProjItem
100
AcDbCircle
 10
148.5
 20
122.795
 30
0
 40
7
100
AcDbArc
 50
-4.06162
 51
0
  0
ARC
  5
A29
330
A02
100
AcDbEntity
  8
ProjItem
100
AcDbCircle
 10
148.5
 20
122.795
 30
0
 40
7
100
AcDbArc
 50
0
 51
180
  0
LINE
  5
A2A
330
A02
100
AcDbEntity
  8
ProjItem
100
AcDbLine
 10
154.294
 20
119.887
 30
0
 11
155.429
 21
122.107
 31
0
  0
LINE
  5
A2B
330
A02
100
AcDbEntity
  8
ProjItem
100
AcDbLine
 10
142.706
 20
119.887
 30
0
 11
141.571
 21
122.107
 31
0
  0
SPLINE
  5
A2C
330
A02
100
AcDbEntity
  8
ProjItem
100
AcDbSpline
210
0
220
0
230
1
 70
8
 71
1
 72
17
 73
15
 74
0
 40
4.71239
 40
4.71239
 40
4.93679
 40
5.16119
 40
5.38559
 40
5.60999
 40
5.83439
 40
6.05879
 40
6.28319
 40
6.50758
 40
6.73198
 40
6.95638
 40
7.18078
 40
7.40518
 40
7.62958
 40
7.85398
 40
7.85398
 10
154.294
 20
119.887
 30
0
 10
154.148
 20
119.887
 30
0
 10
153.72
 20
119.887
 30
0
 10
153.03
 20
119.887
 30
0
 10
152.112
 20
119.887
 30
0
 10
151.014
 20
119.887
 30
0
 10
149.789
 20
119.887
 30
0
 10
148.5
 20
119.887
 30
0
 10
147.211
 20
119.887
 30
0
 10
145.986
 20
119.887
 30
0
 10
144.888
 20
119.887
 30
0
 10
143.97
 20
119.887
 30
0
 10
143.28
 20
119.887
 30
0
 10
142.852
 20
119.887
 30
0
 10
142.706
 20
119.887
 30
0
  0
SPLINE
  5
A2D
330
A02
100
AcDbEntity
  8
ProjItem
100
AcDbSpline
210
0
220
0
230
1
 70
8
 71
1
 72
17
 73
15
 74
0
 40
4.71239
 40
4.71239
 40
4.93679
 40
5.16119
 40
5.38559
 40
5.60999
 40
5.83439
 40
6.05879
 40
6.28319
 40
6.50758
 40
6.73198
 40
6.95638
 40
7.18078
 40
7.40518
 40
7.62958
 40
7.85398
 40
7.85398
 10
156.239
 20
115.874
 30
0
 10
156.045
 20
115.874
 30
0
 10
155.472
 20
115.874
 30
0
 10
154.55
 20
115.874
 30
0
 10
153.325
 20
115.874
 30
0
 10
151.858
 20
115.874
 30
0
 10
150.222
 20
115.874
 30
0
 10
148.5
 20
115.874
 30
0
 10
146.778
 20
115.874
 30
0
 10
145.142
 20
115.874
 30
0
 10
143.675
 20
115.874
 30
0
 10
142.45
 20
115.874
 30
0
 10
141.528
 20
115.874
 30
0
 10
140.955
 20
115.874
 30
0
 10
140.761
 20
115.874
 30
0
  0
SPLINE
  5
A2E
330
A02
100
AcDbEntity
  8
ProjItem
100
AcDbSpline
210
0
220
0
230
1
 70
8
 71
1
 72
17
 73
15
 74
0
 40
4.71239
 40
4.71239
 40
4.93679
 40
5.16119
 40
5.38559
 40
5.60999
 40
5.83439
 40
6.05879
 40
6.28319
 40
6.50758
 40
6.73198
 40
6.95638
 40
7.18078
 40
7.40518
 40
7.62958
 40
7.85398
 40
7.85398
 10
155.543
 20
114.858
 30
0
 10
155.366
 20
114.858
 30
0
 10
154.845
 20
114.858
 30
0
 10
154.006
 20
114.858
 30
0
 10
152.891
 20
114.858
 30
0
 10
151.556
 20
114.858
 30
0
 10
150.067
 20
114.858
 30
0
 10
148.5
 20
114.858
 30
0
 10
146.933
 20
114.858
 30
0
 10
145.444
 20
114.858
 30
0
 10
144.109
 20
114.858
 30
0
 10
142.994
 20
114.858
 30
0
 10
142.155
 20
114.858
 30
0
 10
141.634
 20
114.858
 30
0
 10
141.457
 20
114.858
 30
0
  0
SPLINE
  5
A2F
330
A02
100
AcDbEntity
  8
ProjItem
100
AcDbSpline
210
0
220
0
230
1
 70
8
 71
1
 72
17
 73
15
 74
0
 40
4.71239
 40
4.71239
 40
4.93679
 40
5.16119
 40
5.38559
 40
5.60999
 40
5.83439
 40
6.05879
 40
6.28319
 40
6.50758
 40
6.73198
 40
6.95638
 40
7.18078
 40
7.40518
 40
7.62958
 40
7.85398
 40
7.85398
 10
155.483
 20
114.721
 30
0
 10
155.308
 20
114.721
 30
0
 10
154.791
 20
114.721
 30
0
 10
153.959
 20
114.721
 30
0
 10
152.854
 20
114.721
 30
0
 10
151.53
 20
114.721
 30
0
 10
150.054
 20
114.721
 30
0
 10
148.5
 20
114.721
 30
0
 10
146.946
 20
114.721
 30
0
 10
145.47
 20
114.721
 30
0
 10
144.146
 20
114.721
 30
0
 10
143.041
 20
114.721
 30
0
 10
142.209
 20
114.721
 30
0
 10
141.692
 20
114.721
 30
0
 10
141.517
 20
114.721
 30
0
  0
SPLINE
  5
A30
330
A02
100
AcDbEntity
  8
ProjItem
100
AcDbSpline
210
0
220
0
230
1
 70
8
 71
1
 72
17
 73
15
 74
0
 40
4.71239
 40
4.71239
 40
4.93679
 40
5.16119
 40
5.38559
 40
5.60999
 40
5.83439
 40
6.05879
 40
6.28319
 40
6.50758
 40
6.73198
 40
6.95638
 40
7.18078
 40
7.40518
 40
7.62958
 40
7.85398
 40
7.85398
 10
161.08
 20
83.6762
 30
0
 10
160.765
 20
83.6762
 30
0
 10
159.834
 20
83.6762
 30
0
 10
158.336
 20
83.6762
 30
0
 10
156.344
 20
83.6762
 30
0
 10
153.958
 20
83.6762
 30
0
 10
151.299
 20
83.6762
 30
0
 10
148.5
 20
83.6762
 30
0
 10
145.701
 20
83.6762
 30
0
 10
143.042
 20
83.6762
 30
0
 10
140.656
 20
83.6762
 30
0
 10
138.664
 20
83.6762
 30
0
 10
137.166
 20
83.6762
 30
0
 10
136.235
 20
83.6762
 30
0
 10
135.92
 20
83.6762
 30
0
  0
SPLINE
  5
A31
330
A02
100
AcDbEntity
  8
ProjItem
100
AcDbSpline
210
0
220
0
230
1
 70
8
 71
1
 72
17
 73
15
 74
0
 40
4.71239
 40
4.71239
 40
4.93679
 40
5.16119
 40
5.38559
 40
5.60999
 40
5.83439
 40
6.05879
 40
6.28319
 40
6.50758
 40
6.73198
 40
6.95638
 40
7.18078
 40
7.40518
 40
7.62958
 40
7.85398
 40
7.85398
 10
155.429
 20
122.107
 30
0
 10
155.255
 20
122.107
 30
0
 10
154.743
 20
122.107
 30
0
 10
153.917
 20
122.107
 30
0
 10
152.82
 20
122.107
 30
0
 10
151.506
 20
122.107
 30
0
 10
150.042
 20
122.107
 30
0
 10
148.5
 20
122.107
 30
0
 10
146.958
 20
122.107
 30
0
 10
145.494
 20
122.107
 30
0
 10
144.18
 20
122.107
 30
0
 10
143.083
 20
122.107
 30
0
 10
142.257
 20
122.107
 30
0
 10
141.745
 20
122.107
 30
0
 10
141.571
 20
122.107
 30
0
  0
ENDSEC
  0
SECTION
  2
OBJECTS
  0
DICTIONARY
  5
F000
330
0
100
AcDbDictionary
  3
ACAD_GROUP
350
F001
  0
DICTIONARY
  5
F001
330
F000
100
AcDbDictionary
  0
ENDSEC
  0
EOF